<svg width="200px" height="235px" viewBox="0 0 200 235" version="1.1" xmlns="http://www.w3.org/2000/svg" xmlns:xlink="http://www.w3.org/1999/xlink">
    <g id="Page-1" stroke="none" stroke-width="1" fill="none" fill-rule="evenodd">
        <g id="Mac-Copy-2" transform="translate(-119.000000, -714.000000)" fill="#118DDC" fill-rule="nonzero">
            <g id="SVG-Layer" transform="translate(119.000000, 714.000000)">
                <g id="Capa_1">
                    <g id="Group">
                        <path d="M99.1240876,126.618005 C99.3673966,126.618005 99.6107056,126.618005 99.9026764,126.618005 C100,126.618005 100.097324,126.618005 100.194647,126.618005 C100.340633,126.618005 100.53528,126.618005 100.681265,126.618005 C114.939173,126.374696 126.472019,121.36253 134.987835,111.776156 C153.722628,90.6569343 150.608273,54.4525547 150.26764,50.9975669 C149.051095,25.0608273 136.788321,12.6520681 126.666667,6.86131387 C119.124088,2.53041363 110.316302,0.194647202 100.486618,0 L100.145985,0 C100.097324,0 100,0 99.9513382,0 L99.6593674,0 C94.2579075,0 83.649635,0.875912409 73.4793187,6.66666667 C63.2603406,12.4574209 50.8029197,24.86618 49.5863747,50.9975669 C49.2457421,54.4525547 46.1313869,90.6569343 64.86618,111.776156 C73.3333333,121.36253 84.86618,126.374696 99.1240876,126.618005 Z M62.5790754,52.2141119 C62.5790754,52.0681265 62.6277372,51.9221411 62.6277372,51.8248175 C64.2335766,16.9343066 89.0024331,13.1873479 99.6107056,13.1873479 L99.8053528,13.1873479 C99.9026764,13.1873479 100.048662,13.1873479 100.194647,13.1873479 C113.333333,13.4793187 135.6691,18.8321168 137.177616,51.8248175 C137.177616,51.9708029 137.177616,52.1167883 137.226277,52.2141119 C137.274939,52.5547445 140.681265,85.6447689 125.206813,103.065693 C119.075426,109.975669 110.900243,113.381995 100.145985,113.479319 C100.048662,113.479319 100,113.479319 99.9026764,113.479319 L99.9026764,113.479319 C99.8053528,113.479319 99.756691,113.479319 99.6593674,113.479319 C88.9537713,113.381995 80.729927,109.975669 74.6472019,103.065693 C59.2214112,85.7420925 62.5304136,52.5060827 62.5790754,52.2141119 Z" id="Shape"></path>
                        <path d="M199.902676,186.666667 C199.902676,186.618005 199.902676,186.569343 199.902676,186.520681 C199.902676,186.131387 199.854015,185.742092 199.854015,185.304136 C199.562044,175.6691 198.92944,153.138686 177.810219,145.93674 C177.664234,145.888078 177.469586,145.839416 177.323601,145.790754 C155.377129,140.194647 137.128954,127.542579 136.934307,127.396594 C133.965937,125.304136 129.878345,126.034063 127.785888,129.002433 C125.693431,131.970803 126.423358,136.058394 129.391727,138.150852 C130.218978,138.734793 149.586375,152.214112 173.819951,158.442822 C185.158151,162.481752 186.423358,174.59854 186.76399,185.693431 C186.76399,186.131387 186.76399,186.520681 186.812652,186.909976 C186.861314,191.289538 186.569343,198.053528 185.790754,201.946472 C177.907543,206.423358 147.007299,221.89781 100,221.89781 C53.1873479,221.89781 22.0924574,206.374696 14.1605839,201.89781 C13.3819951,198.004866 13.0413625,191.240876 13.1386861,186.861314 C13.1386861,186.472019 13.1873479,186.082725 13.1873479,185.644769 C13.5279805,174.549878 14.7931873,162.43309 26.1313869,158.394161 C50.3649635,152.16545 69.7323601,138.63747 70.5596107,138.10219 C73.5279805,136.009732 74.2579075,131.922141 72.1654501,128.953771 C70.0729927,125.985401 65.9854015,125.255474 63.0170316,127.347932 C62.8223844,127.493917 44.6715328,140.145985 22.6277372,145.742092 C22.43309,145.790754 22.2871046,145.839416 22.1411192,145.888078 C1.02189781,153.138686 0.389294404,175.6691 0.097323601,185.255474 C0.097323601,185.693431 0.097323601,186.082725 0.0486618005,186.472019 C0.0486618005,186.520681 0.0486618005,186.569343 0.0486618005,186.618005 C-6.9388939e-18,189.148418 -0.0486618005,202.141119 2.53041363,208.6618 C3.01703163,209.927007 3.89294404,210.997567 5.06082725,211.727494 C6.52068127,212.70073 41.5085158,234.987835 100.048662,234.987835 C158.588808,234.987835 193.576642,212.652068 195.036496,211.727494 C196.155718,210.997567 197.080292,209.927007 197.56691,208.6618 C200,202.189781 199.951338,189.19708 199.902676,186.666667 Z" id="Path"></path>
                    </g>
                </g>
            </g>
        </g>
    </g>
</svg>