
<svg width="200px" height="200px" viewBox="0 0 200 200" version="1.1" xmlns="http://www.w3.org/2000/svg" xmlns:xlink="http://www.w3.org/1999/xlink">
    <g id="Page-1" stroke="none" stroke-width="1" fill="none" fill-rule="evenodd">
        <g id="Mac-Copy-2" transform="translate(-848.000000, -814.000000)" fill="#000000" fill-rule="nonzero">
            <g id="SVG-Layer" transform="translate(848.000000, 814.000000)">
                <g id="Capa_1">
                    <path d="M186.779149,12.9374468 C169.58766,-4.29659574 141.630213,-4.29659574 124.438723,12.9374468 L10.1408511,127.192766 C9.24723404,128.086383 8.69404255,129.235319 8.52382979,130.469362 L0.0557446809,193.192766 C-0.199574468,194.98 0.438723404,196.767234 1.67276596,198.001277 C2.73659574,199.065106 4.22595745,199.703404 5.71531915,199.703404 C5.9706383,199.703404 6.22595745,199.703404 6.4812766,199.660851 L44.2685106,194.554468 C47.4174468,194.128936 49.6302128,191.235319 49.2046809,188.086383 C48.7791489,184.937447 45.8855319,182.724681 42.7365957,183.150213 L12.4387234,187.235319 L18.353617,143.490638 L64.3961702,189.533191 C65.46,190.597021 66.9493617,191.235319 68.4387234,191.235319 C69.9280851,191.235319 71.4174468,190.639574 72.4812766,189.533191 L186.779149,75.2778723 C195.119574,66.9374468 199.715319,55.873617 199.715319,44.086383 C199.715319,32.2991489 195.119574,21.2353191 186.779149,12.9374468 Z M126.651489,26.98 L145.842979,46.1714894 L41.5451064,150.469362 L22.353617,131.277872 L126.651489,26.98 Z M68.4812766,177.362979 L49.7153191,158.597021 L154.013191,54.2991489 L172.779149,73.0651064 L68.4812766,177.362979 Z M180.779149,64.8523404 L134.864255,18.9374468 C140.694043,14.1289362 147.970638,11.4906383 155.630213,11.4906383 C164.353617,11.4906383 172.52383,14.8948936 178.694043,21.0225532 C184.864255,27.1502128 188.225957,35.3629787 188.225957,44.086383 C188.225957,51.7885106 185.58766,59.0225532 180.779149,64.8523404 Z" id="Shape"></path>
                </g>
            </g>
        </g>
    </g>
</svg>