
<svg width="262px" height="200px" viewBox="0 0 262 200" version="1.1" xmlns="http://www.w3.org/2000/svg" xmlns:xlink="http://www.w3.org/1999/xlink">
    <g id="Page-1" stroke="none" stroke-width="1" fill="none" fill-rule="evenodd">
        <g id="Mac-Copy-2" transform="translate(-39.000000, -997.000000)" fill="#118DDC" fill-rule="nonzero">
            <g id="SVG-Layer" transform="translate(39.000000, 997.000000)">
                <g id="Capa_1">
                    <g id="Group">
                        <path d="M229.9729,0.406504065 L32.0325203,0.406504065 C14.3631436,0.406504065 0,14.7696477 0,32.4390244 L0,167.723577 C0,185.392954 14.3631436,199.756098 32.0325203,199.756098 L229.918699,199.756098 C247.588076,199.756098 261.95122,185.392954 261.95122,167.723577 L261.95122,32.4932249 C262.00542,14.8238482 247.642276,0.406504065 229.9729,0.406504065 Z M247.371274,167.723577 C247.371274,177.317073 239.566396,185.121951 229.9729,185.121951 L32.0325203,185.121951 C22.4390244,185.121951 14.6341463,177.317073 14.6341463,167.723577 L14.6341463,32.4932249 C14.6341463,22.899729 22.4390244,15.0948509 32.0325203,15.0948509 L229.918699,15.0948509 C239.512195,15.0948509 247.317073,22.899729 247.317073,32.4932249 L247.317073,167.723577 L247.371274,167.723577 Z" id="Shape"></path>
                        <path d="M165.203252,98.401084 L229.268293,40.9485095 C232.249322,38.2384824 232.520325,33.6314363 229.810298,30.596206 C227.100271,27.6151762 222.493225,27.3441734 219.457995,30.0542005 L131.111111,109.349593 L113.875339,93.9566396 C113.821138,93.902439 113.766938,93.8482385 113.766938,93.7940379 C113.387534,93.4146341 113.00813,93.0894309 112.574526,92.7642276 L42.4390244,30 C39.403794,27.2899729 34.796748,27.5609756 32.0867209,30.596206 C29.3766938,33.6314363 29.6476965,38.2384824 32.6829268,40.9485095 L97.5067751,98.8888889 L32.9539295,159.322493 C30.0271003,162.086721 29.8644986,166.693767 32.6287263,169.674797 C34.0921409,171.192412 36.0433604,172.00542 37.9945799,172.00542 C39.7831978,172.00542 41.5718157,171.355014 42.9810298,170.054201 L108.509485,108.753388 L126.287263,124.634146 C127.696477,125.880759 129.430894,126.476965 131.165312,126.476965 C132.899729,126.476965 134.688347,125.826558 136.04336,124.579946 L154.308943,108.211382 L219.457995,170.108401 C220.867209,171.463415 222.710027,172.113821 224.498645,172.113821 C226.449864,172.113821 228.346883,171.355014 229.810298,169.837398 C232.574526,166.910569 232.466125,162.249322 229.539295,159.485095 L165.203252,98.401084 Z" id="Path"></path>
                    </g>
                </g>
            </g>
        </g>
    </g>
</svg>