<svg width="227px" height="200px" viewBox="0 0 227 200" version="1.1" xmlns="http://www.w3.org/2000/svg" xmlns:xlink="http://www.w3.org/1999/xlink">
    <g id="Page-1" stroke="none" stroke-width="1" fill="none" fill-rule="evenodd">
        <g id="Mac-Copy-2" transform="translate(-627.000000, -1550.000000)" fill="#FFFFFF" fill-rule="nonzero">
            <g id="heart" transform="translate(627.000000, 1550.000000)">
                <path d="M208.462019,18.7504808 C196.587019,6.87548077 180.865865,0.385096154 164.087019,0.385096154 C147.308173,0.385096154 131.538942,6.92355769 119.663942,18.7985577 L113.462019,25.0004808 L107.163942,18.7024038 C95.2889423,6.82740385 79.4716346,0.240865385 62.6927885,0.240865385 C45.9620192,0.240865385 30.1927885,6.77932692 18.3658654,18.60625 C6.49086538,30.48125 -0.0475961538,46.2504808 0.000480769231,63.0293269 C0.000480769231,79.8081731 6.58701923,95.5293269 18.4620192,107.404327 L108.750481,197.692788 C110.000481,198.942788 111.683173,199.615865 113.317788,199.615865 C114.952404,199.615865 116.635096,198.990865 117.885096,197.740865 L208.365865,107.596635 C220.240865,95.7216346 226.779327,79.9524038 226.779327,63.1735577 C226.827404,46.3947115 220.337019,30.6254808 208.462019,18.7504808 Z M199.23125,98.4139423 L113.317788,183.990865 L27.5966346,98.2697115 C18.1735577,88.8466346 12.98125,76.3466346 12.98125,63.0293269 C12.98125,49.7120192 18.1254808,37.2120192 27.5485577,27.8370192 C36.9235577,18.4620192 49.4235577,13.2697115 62.6927885,13.2697115 C76.0100962,13.2697115 88.5581731,18.4620192 97.98125,27.8850962 L108.846635,38.7504808 C111.394712,41.2985577 115.48125,41.2985577 118.029327,38.7504808 L128.798558,27.98125 C138.221635,18.5581731 150.769712,13.3658654 164.038942,13.3658654 C177.308173,13.3658654 189.808173,18.5581731 199.23125,27.9331731 C208.654327,37.35625 213.798558,49.85625 213.798558,63.1735577 C213.846635,76.4908654 208.654327,88.9908654 199.23125,98.4139423 Z" id="Shape"></path>
            </g>
        </g>
    </g>
</svg>