<svg width="200px" height="200px" viewBox="0 0 200 200" version="1.1" xmlns="http://www.w3.org/2000/svg" xmlns:xlink="http://www.w3.org/1999/xlink">
    <g id="Page-1" stroke="none" stroke-width="1" fill="none" fill-rule="evenodd">
        <g id="Mac-Copy-2" transform="translate(-472.000000, -1718.000000)" fill="#FFFFFF" fill-rule="nonzero">
            <g id="chat-1" transform="translate(472.000000, 1718.000000)">
                <path d="M170.53682,29.2887029 C151.666527,10.41841 126.603766,0 99.909205,0 C73.2146444,0 48.1518828,10.41841 29.28159,29.2887029 C-7.12008368,65.6903766 -9.75606695,123.849372 22.6707113,163.263598 C18.1937238,172.426778 12.9217573,178.535565 6.93849372,181.464435 C3.29832636,183.263598 1.24811715,187.196653 1.83389121,191.213389 C2.46150628,195.271967 5.55774059,198.410042 9.61631799,199.037657 C11.8338912,199.372385 14.2188285,199.58159 16.6874477,199.58159 L16.6874477,199.58159 C28.9468619,199.58159 41.8338912,195.355649 52.5870293,187.949791 C67.0640167,195.732218 83.3401674,199.832636 99.909205,199.832636 C126.603766,199.832636 151.666527,189.456067 170.53682,170.585774 C189.407113,151.715481 199.783682,126.610879 199.783682,99.958159 C199.783682,73.3054393 189.407113,48.1589958 170.53682,29.2887029 Z M162.545188,162.552301 C145.808787,179.288703 123.549372,188.493724 99.909205,188.493724 C84.0933054,188.493724 68.5702929,184.267782 55.0556485,176.317992 C54.1769874,175.8159 53.1728033,175.523013 52.2104603,175.523013 C50.9970711,175.523013 49.741841,175.941423 48.7376569,176.694561 C35.9343096,186.610879 23.0472803,188.075314 17.3987448,188.200837 C24.1351464,183.179916 29.783682,175.39749 34.5117155,164.560669 C35.3903766,162.552301 35.0138075,160.209205 33.5493724,158.535565 C2.58702929,123.556485 4.21882845,70.251046 37.2732218,37.1966527 C54.0096234,20.460251 76.2690377,11.2552301 99.909205,11.2552301 C123.549372,11.2552301 145.808787,20.460251 162.545188,37.1966527 C197.105858,71.7991632 197.105858,128.033473 162.545188,162.552301 Z" id="Shape"></path>
                <path d="M141.750209,66.9456067 L58.0682008,66.9456067 C54.9301255,66.9456067 52.4196653,69.4560669 52.4196653,72.5941423 C52.4196653,75.7322176 54.9301255,78.2426778 58.0682008,78.2426778 L141.750209,78.2426778 C144.888285,78.2426778 147.398745,75.7322176 147.398745,72.5941423 C147.398745,69.4560669 144.846444,66.9456067 141.750209,66.9456067 Z" id="Path"></path>
                <path d="M141.750209,94.2677824 L58.0682008,94.2677824 C54.9301255,94.2677824 52.4196653,96.7782427 52.4196653,99.916318 C52.4196653,103.054393 54.9301255,105.564854 58.0682008,105.564854 L141.750209,105.564854 C144.888285,105.564854 147.398745,103.054393 147.398745,99.916318 C147.398745,96.7782427 144.846444,94.2677824 141.750209,94.2677824 Z" id="Path"></path>
                <path d="M141.750209,121.589958 L58.0682008,121.589958 C54.9301255,121.589958 52.4196653,124.100418 52.4196653,127.238494 C52.4196653,130.376569 54.9301255,132.887029 58.0682008,132.887029 L141.750209,132.887029 C144.888285,132.887029 147.398745,130.376569 147.398745,127.238494 C147.398745,124.100418 144.846444,121.589958 141.750209,121.589958 Z" id="Path"></path>
            </g>
        </g>
    </g>
</svg>