
<svg width="200px" height="201px" viewBox="0 0 200 201" version="1.1" xmlns="http://www.w3.org/2000/svg" xmlns:xlink="http://www.w3.org/1999/xlink">
    <g id="Page-1" stroke="none" stroke-width="1" fill="none" fill-rule="evenodd">
        <g id="Mac" transform="translate(-595.000000, -2508.000000)" fill="#118DDC" fill-rule="nonzero">
            <g id="SVG-Layer" transform="translate(594.000000, 2508.000000)">
                <g id="Page-1">
                    <g id="Mac-Copy-2">
                        <g id="SVG-Layer" transform="translate(0.890949, 0.571555)">
                            <g id="Capa_1">
                                <g id="Group">
                                    <path d="M157.998312,123.842194 C153.905485,119.580591 148.968776,117.30211 143.736709,117.30211 C138.546835,117.30211 133.567932,119.538397 129.306329,123.8 L115.972996,137.091139 C114.875949,136.500422 113.778903,135.951899 112.724051,135.403376 C111.205063,134.643882 109.770464,133.926582 108.546835,133.167089 C96.057384,125.234599 84.707173,114.897046 73.821097,101.521519 C68.5468354,94.8548523 65.0025316,89.243038 62.428692,83.5468354 C65.8886076,80.3822785 69.0953586,77.0911392 72.2177215,73.9265823 C73.3991561,72.7451477 74.5805907,71.521519 75.7620253,70.3400844 C84.6227848,61.4793249 84.6227848,50.0025316 75.7620253,41.1417722 L64.243038,29.6227848 C62.9350211,28.3147679 61.5848101,26.964557 60.3189873,25.614346 C57.7873418,22.9983122 55.1291139,20.2978903 52.3864979,17.7662447 C48.2936709,13.7156118 43.3991561,11.5637131 38.2514768,11.5637131 C33.1037975,11.5637131 28.1248945,13.7156118 23.9054852,17.7662447 C23.8632911,17.8084388 23.8632911,17.8084388 23.821097,17.8506329 L9.47510549,32.3232068 C4.0742616,37.7240506 0.994092827,44.3063291 0.318987342,51.9434599 C-0.693670886,64.264135 2.9350211,75.7409283 5.71983122,83.2514768 C12.5552743,101.690295 22.7662447,118.778903 37.9983122,137.091139 C56.4793249,159.15865 78.7156118,176.58481 104.116456,188.863291 C113.821097,193.462447 126.774684,198.905485 141.247257,199.833755 C142.133333,199.875949 143.061603,199.918143 143.905485,199.918143 C153.652321,199.918143 161.837975,196.416034 168.251477,189.454008 C168.293671,189.36962 168.378059,189.327426 168.420253,189.243038 C170.614346,186.58481 173.145992,184.179747 175.804219,181.605907 C177.618565,179.875949 179.475105,178.061603 181.289451,176.162869 C185.466667,171.816878 187.660759,166.753586 187.660759,161.563713 C187.660759,156.331646 185.424473,151.310549 181.162869,147.091139 L157.998312,123.842194 Z M173.103797,168.272574 C173.061603,168.272574 173.061603,168.314768 173.103797,168.272574 C171.458228,170.044726 169.770464,171.648101 167.956118,173.420253 C165.213502,176.036287 162.428692,178.778903 159.812658,181.859072 C155.551055,186.416034 150.529958,188.567932 143.947679,188.567932 C143.314768,188.567932 142.639662,188.567932 142.006751,188.525738 C129.475105,187.724051 117.829536,182.829536 109.095359,178.652321 C85.2135021,167.091139 64.243038,150.677637 46.8168776,129.875949 C32.428692,112.534177 22.8084388,96.5004219 16.4371308,79.2852321 C12.5130802,68.778903 11.078481,60.5932489 11.7113924,52.87173 C12.1333333,47.9350211 14.0320675,43.8421941 17.5341772,40.3400844 L31.9223629,25.9518987 C33.9898734,24.0109705 36.1839662,22.9561181 38.335865,22.9561181 C40.9940928,22.9561181 43.1459916,24.5594937 44.4962025,25.9097046 C44.5383966,25.9518987 44.5805907,25.9940928 44.6227848,26.0362869 C47.1966245,28.4413502 49.6438819,30.9308017 52.2177215,33.5890295 C53.5257384,34.9392405 54.8759494,36.2894515 56.2261603,37.6818565 L67.7451477,49.2008439 C72.2177215,53.6734177 72.2177215,57.8084388 67.7451477,62.2810127 C66.521519,63.5046414 65.3400844,64.72827 64.1164557,65.9097046 C60.5721519,69.5383966 57.1966245,72.9139241 53.5257384,76.2050633 C53.4413502,76.2894515 53.356962,76.3316456 53.3147679,76.4160338 C49.6860759,80.0447257 50.3611814,83.5890295 51.1206751,85.9940928 C51.1628692,86.1206751 51.2050633,86.2472574 51.2472574,86.3738397 C54.243038,93.6312236 58.4624473,100.466667 64.8759494,108.610127 L64.9181435,108.652321 C76.5637131,122.998312 88.8421941,134.179747 102.386498,142.745148 C104.116456,143.842194 105.888608,144.72827 107.576371,145.572152 C109.095359,146.331646 110.529958,147.048945 111.753586,147.808439 C111.922363,147.892827 112.091139,148.019409 112.259916,148.103797 C113.694515,148.821097 115.044726,149.15865 116.437131,149.15865 C119.939241,149.15865 122.133333,146.964557 122.850633,146.247257 L137.281013,131.816878 C138.715612,130.382278 140.994093,128.652321 143.652321,128.652321 C146.268354,128.652321 148.420253,130.29789 149.72827,131.732489 C149.770464,131.774684 149.770464,131.774684 149.812658,131.816878 L173.061603,155.065823 C177.407595,159.36962 177.407595,163.8 173.103797,168.272574 Z" id="Shape"></path>
                                    <path d="M108.040506,47.5552743 C119.095359,49.4118143 129.137553,54.6438819 137.15443,62.6607595 C145.171308,70.6776371 150.361181,80.7198312 152.259916,91.7746835 C152.724051,94.5594937 155.129114,96.5004219 157.87173,96.5004219 C158.209283,96.5004219 158.504641,96.4582278 158.842194,96.4160338 C161.964557,95.9097046 164.032068,92.9561181 163.525738,89.8337553 C161.247257,76.4582278 154.918143,64.264135 145.255696,54.6016878 C135.593249,44.9392405 123.399156,38.6101266 110.023629,36.3316456 C106.901266,35.8253165 103.989873,37.892827 103.44135,40.9729958 C102.892827,44.0531646 104.918143,47.0489451 108.040506,47.5552743 Z" id="Path"></path>
                                    <path d="M199.686076,88.1881857 C195.930802,66.1628692 185.551055,46.1206751 169.601688,30.171308 C153.652321,14.2219409 133.610127,3.84219409 111.58481,0.0869198312 C108.504641,-0.461603376 105.593249,1.64810127 105.044726,4.72827004 C104.538397,7.85063291 106.605907,10.7620253 109.72827,11.3105485 C129.390717,14.6438819 147.323207,23.9687764 161.58481,38.1881857 C175.846414,52.449789 185.129114,70.3822785 188.462447,90.0447257 C188.926582,92.8295359 191.331646,94.7704641 194.074262,94.7704641 C194.411814,94.7704641 194.707173,94.72827 195.044726,94.6860759 C198.124895,94.2219409 200.234599,91.2683544 199.686076,88.1881857 Z" id="Path"></path>
                                </g>
                            </g>
                        </g>
                    </g>
                </g>
            </g>
        </g>
    </g>
</svg>