<svg width="212px" height="200px" viewBox="0 0 212 200" version="1.1" xmlns="http://www.w3.org/2000/svg" xmlns:xlink="http://www.w3.org/1999/xlink">
    <g id="Page-1" stroke="none" stroke-width="1" fill="none" fill-rule="evenodd">
        <g id="Mac-Copy-2" transform="translate(-609.000000, -1160.000000)" fill="#FFFFFF" fill-rule="nonzero">
            <g id="piggy-bank" transform="translate(609.000000, 1160.000000)">
                <path d="M195.965293,71.6924078 L192.885033,71.6924078 C187.765727,58.5470716 179.175705,46.6164859 167.722343,36.9418655 C166.117137,31.1284165 167.331887,24.837744 171.453362,18.3301518 C173.752711,14.6425163 173.882863,10.2173536 171.800434,6.44295011 C169.718004,2.71193059 165.813449,0.412581345 161.605206,0.412581345 C161.127983,0.412581345 160.607375,0.455965293 160.130152,0.499349241 C144.295011,2.4516269 134.663774,9.52321041 128.893709,16.2477223 C121.952278,14.0785249 113.145336,13.4277657 111.496746,13.2976139 C107.418655,12.8637744 103.253796,12.6034707 99.132321,12.6034707 C72.7982646,12.6034707 48.0260304,21.6273319 29.3275488,37.9396963 C10.4121475,54.4689805 0,76.55141 0,100.06551 C0,106.139262 0.694143167,112.213015 2.12581345,118.156616 C2.1691974,118.286768 2.1691974,118.41692 2.21258134,118.503688 L2.25596529,118.720607 C3.73101952,124.707592 5.94360087,130.564425 8.76355748,136.160954 C13.4924078,146.312798 19.132321,154.816052 25.4663774,161.367028 C34.2299349,170.390889 35.7483731,181.844252 35.9652928,186.44295 L35.9652928,188.698915 C35.9652928,188.785683 35.9652928,188.915835 35.9652928,189.002603 C35.9652928,189.479826 36.0086768,189.913666 36.0954447,190.347505 C36.9197397,195.727115 41.5618221,199.84859 47.1149675,199.84859 L79.4360087,199.84859 C85.5965293,199.84859 90.5856833,194.859436 90.5856833,188.698915 L90.5856833,187.223861 C95.1843818,187.570933 99.8264642,187.614317 104.468547,187.397397 L104.468547,188.698915 C104.468547,194.859436 109.457701,199.84859 115.618221,199.84859 L147.939262,199.84859 C154.099783,199.84859 159.088937,194.859436 159.088937,188.698915 L159.088937,180.803037 C159.132321,178.980911 159.826464,170.347505 168.02603,162.885466 C168.416486,162.538395 168.850325,162.191323 169.240781,161.844252 C169.284165,161.800868 169.284165,161.800868 169.327549,161.757484 C169.457701,161.670716 169.544469,161.583948 169.631236,161.453796 C180.433839,151.779176 188.590022,139.978742 193.318872,127.093709 L195.878525,127.093709 C204.511931,127.093709 211.54013,120.06551 211.54013,111.432104 L211.54013,87.2672451 C211.626898,78.6772234 204.598698,71.6924078 195.965293,71.6924078 Z M161.605206,12.0828633 C161.561822,12.0828633 161.561822,12.0828633 161.605206,12.0828633 C161.561822,12.0394794 161.561822,12.0394794 161.561822,12.0394794 C161.561822,12.0394794 161.561822,12.0394794 161.561822,12.0828633 L161.561822,12.0828633 L160.824295,6.26941432 L161.605206,12.0828633 Z M199.913232,111.475488 C199.913232,113.644685 198.13449,115.423427 195.965293,115.423427 L189.197397,115.423427 C186.637744,115.423427 184.338395,117.115401 183.600868,119.544902 C179.78308,132.039479 172.190889,143.57961 161.735358,152.907158 C161.691974,152.950542 161.691974,152.950542 161.64859,152.993926 L161.605206,153.03731 C161.214751,153.384382 160.824295,153.731453 160.433839,154.078525 C160.390456,154.121909 160.347072,154.165293 160.303688,154.208677 C148.720174,164.707592 147.548807,177.072017 147.462039,180.629501 C147.462039,180.672885 147.462039,180.716269 147.462039,180.759653 L147.462039,188.178308 L116.225597,188.178308 L116.225597,181.106725 C116.225597,179.458134 115.531453,177.852928 114.273319,176.76833 C113.058568,175.640347 111.366594,175.11974 109.761388,175.293275 C106.203905,175.683731 102.646421,175.857267 99.132321,175.857267 C94.5770065,175.857267 90.021692,175.553579 85.5531453,174.946204 C83.8611714,174.729284 82.1691974,175.249892 80.9110629,176.33449 C79.6529284,177.462473 78.9154013,179.067679 78.9154013,180.759653 L78.9154013,188.178308 L47.7223427,188.178308 L47.7223427,186.312798 C47.7223427,186.22603 47.7223427,186.139262 47.7223427,186.052495 C47.462039,180.195662 45.5965293,165.2282 33.9262473,153.210846 C28.4598698,147.570933 23.5574837,140.152278 19.3926247,131.128416 C19.3492408,131.041649 19.3058568,130.998265 19.3058568,130.911497 C16.8329718,126.095879 14.9240781,121.063341 13.6659436,115.900651 C13.6659436,115.857267 13.6225597,115.813883 13.6225597,115.770499 C13.6225597,115.727115 13.6225597,115.727115 13.6225597,115.683731 C12.4078091,110.564425 11.7570499,105.314967 11.7570499,100.108894 C11.7570499,58.3301518 50.9761388,24.3605206 99.175705,24.3605206 C102.906725,24.3605206 106.681128,24.5774403 110.368764,24.9678959 C110.455531,24.9678959 110.542299,24.9678959 110.629067,25.0112798 C115.488069,25.3149675 124.511931,26.573102 128.112798,28.5253796 C130.759219,29.9570499 134.056399,29.1327549 135.748373,26.6598698 C139.522777,21.0633406 147.071584,13.991757 161.561822,12.2130152 C155.704989,21.5839479 153.969631,31.3019523 156.529284,40.3691974 C156.572668,42.0611714 157.396963,43.6663774 158.698482,44.7509761 C170.412148,54.2086768 178.915401,66.2260304 183.253796,79.4581345 C184.034707,81.8442516 186.290672,83.4928416 188.806941,83.4928416 C188.850325,83.4928416 188.850325,83.4928416 188.893709,83.4928416 L196.008677,83.4928416 C198.177874,83.4928416 199.956616,85.2715835 199.956616,87.4407809 L199.956616,111.475488 L199.913232,111.475488 Z" id="Shape"></path>
            </g>
        </g>
    </g>
</svg>