
<svg width="161px" height="200px" viewBox="0 0 161 200" version="1.1" xmlns="http://www.w3.org/2000/svg" xmlns:xlink="http://www.w3.org/1999/xlink">
    <g id="Page-1" stroke="none" stroke-width="1" fill="none" fill-rule="evenodd">
        <g id="Mac-Copy-2" transform="translate(-681.000000, -590.000000)" fill="#118DDC" fill-rule="nonzero">
            <g id="SVG-Layer" transform="translate(680.000000, 590.000000)">
                <g id="Capa_1" transform="translate(0.793501, 0.000000)">
                    <g id="Group">
                        <path d="M80.4580713,-1.42108547e-14 C36.2651992,-1.42108547e-14 0.290356394,35.9748428 0.290356394,80.1677149 C0.290356394,85.1991614 0.751572327,90.2725367 1.71593291,95.2201258 C1.75786164,95.5136268 1.92557652,96.39413 2.26100629,97.9035639 C3.4769392,103.312369 5.27987421,108.637317 7.6278826,113.710692 C16.2651992,134.046122 35.2589099,165.283019 76.9360587,198.742138 C77.9842767,199.580713 79.2421384,200 80.5,200 C81.7578616,200 83.0157233,199.580713 84.0639413,198.742138 C125.699161,165.283019 144.734801,134.046122 153.372117,113.710692 C155.720126,108.637317 157.523061,103.354298 158.738994,97.9035639 C159.074423,96.39413 159.242138,95.5136268 159.284067,95.2201258 C160.206499,90.2725367 160.709644,85.1991614 160.709644,80.1677149 C160.625786,35.9748428 124.650943,-1.42108547e-14 80.4580713,-1.42108547e-14 Z M148.04717,93.2494759 C148.04717,93.3333333 148.005241,93.4171908 148.005241,93.5010482 C147.963312,93.7106918 147.837526,94.3396226 147.627883,95.3039832 C147.627883,95.3459119 147.627883,95.3459119 147.627883,95.3878407 C146.579665,100.083857 145.028302,104.654088 142.973795,109.056604 C142.931866,109.098532 142.931866,109.18239 142.889937,109.224319 C135.049266,127.798742 117.858491,156.142558 80.4580713,187.044025 C43.057652,156.142558 25.8668763,127.798742 18.0262055,109.224319 C17.9842767,109.18239 17.9842767,109.098532 17.942348,109.056604 C15.9297694,104.696017 14.3784067,100.083857 13.28826,95.3878407 C13.28826,95.3459119 13.28826,95.3459119 13.28826,95.3039832 C13.0366876,94.3396226 12.9528302,93.7106918 12.9109015,93.5010482 C12.9109015,93.4171908 12.8689727,93.3333333 12.8689727,93.2075472 C12.0303983,88.8888889 11.6111111,84.5283019 11.6111111,80.1257862 C11.6111111,42.1802935 42.5125786,11.278826 80.4580713,11.278826 C118.403564,11.278826 149.305031,42.1802935 149.305031,80.1257862 C149.305031,84.5702306 148.885744,88.9727463 148.04717,93.2494759 Z" id="Shape"></path>
                        <path d="M80.4580713,30.1467505 C52.4077568,30.1467505 29.5566038,52.9979036 29.5566038,81.048218 C29.5566038,109.098532 52.4077568,131.949686 80.4580713,131.949686 C108.508386,131.949686 131.359539,109.098532 131.359539,81.048218 C131.359539,52.9979036 108.508386,30.1467505 80.4580713,30.1467505 Z M80.4580713,120.628931 C58.6132075,120.628931 40.8773585,102.851153 40.8773585,81.048218 C40.8773585,59.245283 58.6551363,41.4675052 80.4580713,41.4675052 C102.261006,41.4675052 120.038784,59.245283 120.038784,81.048218 C120.038784,102.851153 102.302935,120.628931 80.4580713,120.628931 Z" id="Shape"></path>
                    </g>
                </g>
            </g>
        </g>
    </g>
</svg>