<svg width="300px" height="210px" viewBox="0 0 300 210" version="1.1" xmlns="http://www.w3.org/2000/svg" xmlns:xlink="http://www.w3.org/1999/xlink">
    <g id="Page-1" stroke="none" stroke-width="1" fill="none" fill-rule="evenodd">
        <g id="Mac-Copy-2" transform="translate(-321.000000, -1028.000000)" fill="#118DDC" fill-rule="nonzero">
            <g id="SVG-Layer" transform="translate(321.000000, 1028.000000)">
                <g id="Capa_1">
                    <path d="M70.3125,0 C31.5421875,0 0,31.5421875 0,70.3125 C0,88.8521484 7.153125,106.345898 20.1410156,119.57168 C32.7140625,132.375 49.3816406,139.787109 67.2357422,140.555273 C67.3201172,141.670898 67.3828125,143.208398 67.3828125,145.3125 C67.3828125,153.932813 60.8273437,180.272461 56.6947266,194.85 L52.4660156,209.765625 L103.784766,209.765625 L107.222461,204.226758 C108.585938,202.029492 140.625,149.500781 140.625,70.3125 C140.625,31.5421875 109.082813,0 70.3125,0 Z M90.3451172,186.328125 L83.2376953,186.328125 C86.6050781,173.095313 90.8203125,154.663477 90.8203125,145.3125 C90.8203125,137.892188 90.2695312,131.930859 87.5794922,126.955078 C85.1835938,122.523047 80.1726563,117.244336 69.8941406,117.188086 L69.3826172,117.175195 C44.0484375,116.68418 23.4375,95.6619141 23.4375,70.3125 C23.4375,44.465625 44.465625,23.4375 70.3125,23.4375 C96.159375,23.4375 117.1875,44.465625 117.1875,70.3125 C117.1875,128.507812 97.9476562,171.582422 90.3451172,186.328125 Z" id="Shape"></path>
                    <path d="M229.6875,0 C190.917188,0 159.375,31.5421875 159.375,70.3125 C159.375,88.8521484 166.528125,106.345898 179.516016,119.57168 C192.089063,132.375 208.756641,139.787109 226.610742,140.555273 C226.695117,141.670898 226.757812,143.208398 226.757812,145.3125 C226.757812,153.932813 220.202344,180.272461 216.069727,194.85 L211.841016,209.765625 L263.159766,209.765625 L266.597461,204.226758 C267.960938,202.029492 300,149.500781 300,70.3125 C300,31.5421875 268.457812,0 229.6875,0 Z M249.720117,186.328125 L242.612695,186.328125 C245.980078,173.095313 250.195312,154.663477 250.195312,145.3125 C250.195312,137.892188 249.644531,131.930859 246.954492,126.955078 C244.558594,122.523047 239.547656,117.244336 229.269141,117.188086 L228.757617,117.175195 C203.423437,116.68418 182.8125,95.6619141 182.8125,70.3125 C182.8125,44.465625 203.840625,23.4375 229.6875,23.4375 C255.534375,23.4375 276.5625,44.465625 276.5625,70.3125 C276.5625,128.507812 257.322656,171.582422 249.720117,186.328125 Z" id="Shape"></path>
                </g>
            </g>
        </g>
    </g>
</svg>